<svg width="29" height="34" viewBox="0 0 29 34" fill="none" xmlns="http://www.w3.org/2000/svg">
<path d="M11.675 28.675V23.8882L20.2561 15.3655C20.4896 15.132 20.7474 14.9569 21.0296 14.8401C21.3117 14.7234 21.6084 14.665 21.9198 14.665C22.2311 14.665 22.5278 14.7234 22.81 14.8401C23.0921 14.9569 23.35 15.132 23.5835 15.3655L25.0136 16.8249C25.2277 17.0584 25.3931 17.3162 25.5098 17.5983C25.6266 17.8805 25.685 18.1675 25.685 18.4594C25.685 18.7512 25.6217 19.0382 25.4952 19.3204C25.3688 19.6025 25.1985 19.8604 24.9845 20.0939L16.4617 28.675H11.675ZM14.01 26.34H15.4693L20.1977 21.6116L19.468 20.8819L18.7383 20.1522L14.01 24.8806V26.34ZM12.5506 13.7894L10.9161 12.1257L13.0468 9.99499H9.13565C8.96052 10.5009 8.68811 10.9387 8.3184 11.3084C7.94869 11.6781 7.51088 11.9506 7.00496 12.1257V21.8743C7.686 22.1273 8.24543 22.5505 8.68324 23.144C9.12105 23.7374 9.33996 24.4136 9.33996 25.1725C9.33996 26.1454 8.99944 26.9724 8.3184 27.6534C7.63736 28.3345 6.81038 28.675 5.83746 28.675C4.86454 28.675 4.03757 28.3345 3.35652 27.6534C2.67548 26.9724 2.33496 26.1454 2.33496 25.1725C2.33496 24.4136 2.55387 23.7423 2.99168 23.1586C3.42949 22.5748 3.98892 22.1564 4.66996 21.9035V12.1257C3.98892 11.8727 3.42949 11.4495 2.99168 10.856C2.55387 10.2625 2.33496 9.58636 2.33496 8.82749C2.33496 7.85457 2.67548 7.02759 3.35652 6.34655C4.03757 5.66551 4.86454 5.32499 5.83746 5.32499C6.59634 5.32499 7.27251 5.54389 7.86599 5.98171C8.45947 6.41952 8.88269 6.97895 9.13565 7.65999H13.0468L10.9161 5.5293L12.5506 3.86561L17.5125 8.82749L12.5506 13.7894ZM22.1825 5.32499C23.1554 5.32499 23.9824 5.66551 24.6634 6.34655C25.3444 7.02759 25.685 7.85457 25.685 8.82749C25.685 9.8004 25.3444 10.6274 24.6634 11.3084C23.9824 11.9895 23.1554 12.33 22.1825 12.33C21.2095 12.33 20.3826 11.9895 19.7015 11.3084C19.0205 10.6274 18.68 9.8004 18.68 8.82749C18.68 7.85457 19.0205 7.02759 19.7015 6.34655C20.3826 5.66551 21.2095 5.32499 22.1825 5.32499ZM5.83746 26.34C6.16825 26.34 6.44553 26.2281 6.6693 26.0043C6.89308 25.7806 7.00496 25.5033 7.00496 25.1725C7.00496 24.8417 6.89308 24.5644 6.6693 24.3406C6.44553 24.1169 6.16825 24.005 5.83746 24.005C5.50667 24.005 5.22939 24.1169 5.00562 24.3406C4.78185 24.5644 4.66996 24.8417 4.66996 25.1725C4.66996 25.5033 4.78185 25.7806 5.00562 26.0043C5.22939 26.2281 5.50667 26.34 5.83746 26.34ZM5.83746 9.99499C6.16825 9.99499 6.44553 9.8831 6.6693 9.65933C6.89308 9.43556 7.00496 9.15828 7.00496 8.82749C7.00496 8.4967 6.89308 8.21941 6.6693 7.99564C6.44553 7.77187 6.16825 7.65999 5.83746 7.65999C5.50667 7.65999 5.22939 7.77187 5.00562 7.99564C4.78185 8.21941 4.66996 8.4967 4.66996 8.82749C4.66996 9.15828 4.78185 9.43556 5.00562 9.65933C5.22939 9.8831 5.50667 9.99499 5.83746 9.99499ZM22.1825 9.99499C22.5133 9.99499 22.7905 9.8831 23.0143 9.65933C23.2381 9.43556 23.35 9.15828 23.35 8.82749C23.35 8.4967 23.2381 8.21941 23.0143 7.99564C22.7905 7.77187 22.5133 7.65999 22.1825 7.65999C21.8517 7.65999 21.5744 7.77187 21.3506 7.99564C21.1268 8.21941 21.015 8.4967 21.015 8.82749C21.015 9.15828 21.1268 9.43556 21.3506 9.65933C21.5744 9.8831 21.8517 9.99499 22.1825 9.99499Z" fill="#61DAFB"/>
</svg>
