<svg width="29" height="34" viewBox="0 0 29 34" fill="none" xmlns="http://www.w3.org/2000/svg">
<path d="M14.0099 27.5075C11.0717 27.5075 8.58593 27.0551 6.55254 26.1503C4.51914 25.2455 3.50244 24.1412 3.50244 22.8375V11.1625C3.50244 9.87826 4.52887 8.77886 6.58172 7.86432C8.63458 6.94978 11.1106 6.49251 14.0099 6.49251C16.9092 6.49251 19.3853 6.94978 21.4382 7.86432C23.491 8.77886 24.5174 9.87826 24.5174 11.1625V22.8375C24.5174 24.1412 23.5007 25.2455 21.4673 26.1503C19.434 27.0551 16.9481 27.5075 14.0099 27.5075ZM14.0099 13.5267C15.7417 13.5267 17.4833 13.2786 19.2345 12.7824C20.9858 12.2862 21.9684 11.756 22.1824 11.1917C21.9684 10.6274 20.9906 10.0923 19.2491 9.58638C17.5076 9.08047 15.7612 8.82751 14.0099 8.82751C12.2392 8.82751 10.5026 9.0756 8.79997 9.57179C7.09737 10.068 6.10986 10.6079 5.83744 11.1917C6.10986 11.7754 7.09737 12.3105 8.79997 12.797C10.5026 13.2835 12.2392 13.5267 14.0099 13.5267ZM14.0099 19.335C14.8272 19.335 15.6153 19.2961 16.3741 19.2183C17.133 19.1404 17.8578 19.0285 18.5486 18.8826C19.2394 18.7367 19.8912 18.5567 20.5042 18.3426C21.1171 18.1286 21.6765 17.8854 22.1824 17.6129V14.1104C21.6765 14.3829 21.1171 14.6261 20.5042 14.8401C19.8912 15.0542 19.2394 15.2342 18.5486 15.3801C17.8578 15.526 17.133 15.6379 16.3741 15.7158C15.6153 15.7936 14.8272 15.8325 14.0099 15.8325C13.1927 15.8325 12.3949 15.7936 11.6166 15.7158C10.8382 15.6379 10.1037 15.526 9.41291 15.3801C8.72214 15.2342 8.07515 15.0542 7.47194 14.8401C6.86873 14.6261 6.3239 14.3829 5.83744 14.1104V17.6129C6.3239 17.8854 6.86873 18.1286 7.47194 18.3426C8.07515 18.5567 8.72214 18.7367 9.41291 18.8826C10.1037 19.0285 10.8382 19.1404 11.6166 19.2183C12.3949 19.2961 13.1927 19.335 14.0099 19.335ZM14.0099 25.1725C14.905 25.1725 15.8147 25.1044 16.739 24.9682C17.6632 24.832 18.5145 24.652 19.2929 24.4282C20.0712 24.2045 20.7231 23.9515 21.2484 23.6694C21.7738 23.3872 22.0851 23.1002 22.1824 22.8083V19.9479C21.6765 20.2204 21.1171 20.4636 20.5042 20.6776C19.8912 20.8917 19.2394 21.0717 18.5486 21.2176C17.8578 21.3635 17.133 21.4754 16.3741 21.5533C15.6153 21.6311 14.8272 21.67 14.0099 21.67C13.1927 21.67 12.3949 21.6311 11.6166 21.5533C10.8382 21.4754 10.1037 21.3635 9.41291 21.2176C8.72214 21.0717 8.07515 20.8917 7.47194 20.6776C6.86873 20.4636 6.3239 20.2204 5.83744 19.9479V22.8375C5.93473 23.1294 6.2412 23.4115 6.75685 23.6839C7.27249 23.9564 7.91948 24.2045 8.69782 24.4282C9.47615 24.652 10.3323 24.832 11.2663 24.9682C12.2003 25.1044 13.1149 25.1725 14.0099 25.1725Z" fill="#47A248"/>
</svg>
