<svg width="29" height="34" viewBox="0 0 29 34" fill="none" xmlns="http://www.w3.org/2000/svg">
<path d="M8.75307 20.4952C8.26678 20.4952 7.85344 20.325 7.51304 19.9846C7.17264 19.6442 7.00244 19.2308 7.00244 18.7446V17.5775H8.75307V18.7446H10.5037V13.4927H12.2543V18.7446C12.2543 19.2308 12.0841 19.6442 11.7437 19.9846C11.4033 20.325 10.99 20.4952 10.5037 20.4952H8.75307ZM15.172 20.4952C14.8414 20.4952 14.5642 20.3833 14.3405 20.1597C14.1168 19.936 14.0049 19.6588 14.0049 19.3281V18.161H15.7556V18.7446H18.0897V17.5775H15.172C14.8414 17.5775 14.5642 17.4656 14.3405 17.2419C14.1168 17.0183 14.0049 16.7411 14.0049 16.4104V14.6598C14.0049 14.3291 14.1168 14.0519 14.3405 13.8282C14.5642 13.6045 14.8414 13.4927 15.172 13.4927H18.6733C19.0039 13.4927 19.2811 13.6045 19.5048 13.8282C19.7285 14.0519 19.8404 14.3291 19.8404 14.6598V15.8269H18.0897V15.2433H15.7556V16.4104H18.6733C19.0039 16.4104 19.2811 16.5222 19.5048 16.7459C19.7285 16.9696 19.8404 17.2468 19.8404 17.5775V19.3281C19.8404 19.6588 19.7285 19.936 19.5048 20.1597C19.2811 20.3833 19.0039 20.4952 18.6733 20.4952H15.172Z" fill="#94A3B8"/>
</svg>
