<svg width="29" height="34" viewBox="0 0 29 34" fill="none" xmlns="http://www.w3.org/2000/svg">
<path d="M3.50128 29.8319V24.9301C2.82048 24.6967 2.26125 24.2834 1.8236 23.6901C1.38594 23.0968 1.16711 22.4209 1.16711 21.6623V9.99144H3.50128V5.32311C3.50128 4.99243 3.61313 4.71525 3.83682 4.49156C4.06051 4.26787 4.33769 4.15603 4.66836 4.15603C4.99904 4.15603 5.27622 4.26787 5.49991 4.49156C5.7236 4.71525 5.83545 4.99243 5.83545 5.32311V9.99144H8.16961V21.6623C8.16961 22.4209 7.95079 23.0968 7.51313 23.6901C7.07547 24.2834 6.51625 24.6967 5.83545 24.9301V29.8319H3.50128ZM12.8379 29.8319V24.9301C12.1571 24.6967 11.5979 24.2834 11.1603 23.6901C10.7226 23.0968 10.5038 22.4209 10.5038 21.6623V9.99144H12.8379V5.32311C12.8379 4.99243 12.9498 4.71525 13.1735 4.49156C13.3972 4.26787 13.6744 4.15603 14.005 4.15603C14.3357 4.15603 14.6129 4.26787 14.8366 4.49156C15.0603 4.71525 15.1721 4.99243 15.1721 5.32311V9.99144H17.5063V21.6623C17.5063 22.4209 17.2875 23.0968 16.8498 23.6901C16.4121 24.2834 15.8529 24.6967 15.1721 24.9301V29.8319H12.8379ZM22.1746 29.8319V24.9301C21.4938 24.6967 20.9346 24.2834 20.4969 23.6901C20.0593 23.0968 19.8404 22.4209 19.8404 21.6623V9.99144H22.1746V5.32311C22.1746 4.99243 22.2865 4.71525 22.5102 4.49156C22.7338 4.26787 23.011 4.15603 23.3417 4.15603C23.6724 4.15603 23.9496 4.26787 24.1732 4.49156C24.3969 4.71525 24.5088 4.99243 24.5088 5.32311V9.99144H26.8429V21.6623C26.8429 22.4209 26.6241 23.0968 26.1865 23.6901C25.7488 24.2834 25.1896 24.6967 24.5088 24.9301V29.8319H22.1746ZM3.50128 12.3256V16.9939H5.83545V12.3256H3.50128ZM12.8379 12.3256V16.9939H15.1721V12.3256H12.8379ZM22.1746 12.3256V16.9939H24.5088V12.3256H22.1746ZM4.66836 22.8294C4.99904 22.8294 5.27622 22.7175 5.49991 22.4938C5.7236 22.2701 5.83545 21.9929 5.83545 21.6623V19.3281H3.50128V21.6623C3.50128 21.9929 3.61313 22.2701 3.83682 22.4938C4.06051 22.7175 4.33769 22.8294 4.66836 22.8294ZM14.005 22.8294C14.3357 22.8294 14.6129 22.7175 14.8366 22.4938C15.0603 22.2701 15.1721 21.9929 15.1721 21.6623V19.3281H12.8379V21.6623C12.8379 21.9929 12.9498 22.2701 13.1735 22.4938C13.3972 22.7175 13.6744 22.8294 14.005 22.8294ZM23.3417 22.8294C23.6724 22.8294 23.9496 22.7175 24.1732 22.4938C24.3969 22.2701 24.5088 21.9929 24.5088 21.6623V19.3281H22.1746V21.6623C22.1746 21.9929 22.2865 22.2701 22.5102 22.4938C22.7338 22.7175 23.011 22.8294 23.3417 22.8294Z" fill="#339933"/>
</svg>
