<svg width="25" height="28" viewBox="0 0 25 28" fill="none" xmlns="http://www.w3.org/2000/svg">
<path d="M4.23204 22.75C3.69732 22.75 3.23957 22.5596 2.85878 22.1788C2.47799 21.798 2.2876 21.3403 2.2876 20.8056V10.1111C2.2876 9.57639 2.47799 9.11863 2.85878 8.73785C3.23957 8.35706 3.69732 8.16667 4.23204 8.16667H8.12093V6.22222C8.12093 5.6875 8.31132 5.22974 8.69211 4.84896C9.0729 4.46817 9.53065 4.27778 10.0654 4.27778H13.9543C14.489 4.27778 14.9467 4.46817 15.3275 4.84896C15.7083 5.22974 15.8987 5.6875 15.8987 6.22222V8.16667H19.7876C20.3223 8.16667 20.7801 8.35706 21.1609 8.73785C21.5416 9.11863 21.732 9.57639 21.732 10.1111V20.8056C21.732 21.3403 21.5416 21.798 21.1609 22.1788C20.7801 22.5596 20.3223 22.75 19.7876 22.75H4.23204ZM4.23204 20.8056H19.7876V10.1111H4.23204V20.8056ZM10.0654 8.16667H13.9543V6.22222H10.0654V8.16667Z" fill="#0077B5"/>
</svg>
