<svg width="25" height="28" viewBox="0 0 25 28" fill="none" xmlns="http://www.w3.org/2000/svg">
<path d="M4.23204 21.7778C3.69732 21.7778 3.23957 21.5874 2.85878 21.2066C2.47799 20.8258 2.2876 20.368 2.2876 19.8333V8.16666C2.2876 7.63194 2.47799 7.17418 2.85878 6.7934C3.23957 6.41261 3.69732 6.22222 4.23204 6.22222H19.7876C20.3223 6.22222 20.7801 6.41261 21.1609 6.7934C21.5416 7.17418 21.732 7.63194 21.732 8.16666V19.8333C21.732 20.368 21.5416 20.8258 21.1609 21.2066C20.7801 21.5874 20.3223 21.7778 19.7876 21.7778H4.23204ZM12.0098 14.9722L4.23204 10.1111V19.8333H19.7876V10.1111L12.0098 14.9722ZM12.0098 13.0278L19.7876 8.16666H4.23204L12.0098 13.0278Z" fill="#137FEC"/>
</svg>
