<svg width="36" height="44" viewBox="0 0 36 44" fill="none" xmlns="http://www.w3.org/2000/svg">
<path d="M18 22C18.825 22 19.5313 21.7062 20.1188 21.1187C20.7063 20.5312 21 19.825 21 19C21 18.175 20.7063 17.4688 20.1188 16.8812C19.5313 16.2937 18.825 16 18 16C17.175 16 16.4688 16.2937 15.8813 16.8812C15.2938 17.4688 15 18.175 15 19C15 19.825 15.2938 20.5312 15.8813 21.1187C16.4688 21.7062 17.175 22 18 22ZM18 33.025C21.05 30.225 23.3125 27.6812 24.7875 25.3937C26.2625 23.1062 27 21.075 27 19.3C27 16.575 26.1313 14.3438 24.3938 12.6062C22.6562 10.8687 20.525 10 18 10C15.475 10 13.3438 10.8687 11.6063 12.6062C9.86875 14.3438 9 16.575 9 19.3C9 21.075 9.7375 23.1062 11.2125 25.3937C12.6875 27.6812 14.95 30.225 18 33.025ZM18 37C13.975 33.575 10.9688 30.3937 8.98125 27.4562C6.99375 24.5187 6 21.8 6 19.3C6 15.55 7.20625 12.5625 9.61875 10.3375C12.0313 8.1125 14.825 7 18 7C21.175 7 23.9688 8.1125 26.3813 10.3375C28.7938 12.5625 30 15.55 30 19.3C30 21.8 29.0063 24.5187 27.0188 27.4562C25.0312 30.3937 22.025 33.575 18 37Z" fill="#137FEC"/>
</svg>
