<svg xmlns="http://www.w3.org/2000/svg" version="1.1" xmlns:xlink="http://www.w3.org/1999/xlink" width="20" height="16"><svg xmlns="http://www.w3.org/2000/svg" version="1.1" xmlns:xlink="http://www.w3.org/1999/xlink" width="20" height="16"><svg width="20" height="16" viewBox="0 0 20 16" fill="none" xmlns="http://www.w3.org/2000/svg">
<path d="M1.94444 15.5555C1.40972 15.5555 0.951968 15.3651 0.571181 14.9844C0.190394 14.6036 0 14.1458 0 13.6111V1.94443C0 1.40971 0.190394 0.951954 0.571181 0.571167C0.951968 0.19038 1.40972 -1.38283e-05 1.94444 -1.38283e-05H17.5C18.0347 -1.38283e-05 18.4925 0.19038 18.8733 0.571167C19.2541 0.951954 19.4444 1.40971 19.4444 1.94443V13.6111C19.4444 14.1458 19.2541 14.6036 18.8733 14.9844C18.4925 15.3651 18.0347 15.5555 17.5 15.5555H1.94444ZM1.94444 13.6111H17.5V3.88888H1.94444V13.6111ZM5.34722 12.6389L3.98611 11.2778L6.48958 8.74999L3.96181 6.22221L5.34722 4.8611L9.23611 8.74999L5.34722 12.6389ZM9.72222 12.6389V10.6944H15.5556V12.6389H9.72222Z" fill="white"></path>
</svg></svg><style>@media (prefers-color-scheme: light) { :root { filter: none; } }
@media (prefers-color-scheme: dark) { :root { filter: contrast(1) brightness(1); } }
</style></svg>