<svg width="20" height="20" viewBox="0 0 20 20" fill="none" xmlns="http://www.w3.org/2000/svg">
<path fill-rule="evenodd" clip-rule="evenodd" d="M17.999 4.118C17.9972 4.12685 17.9938 4.14225 17.9874 4.1647C17.9718 4.21995 17.9475 4.28705 17.9173 4.35875C17.9084 4.37985 17.8995 4.40035 17.8907 4.4199C17.2552 4.85565 15.9894 5.46965 14.8548 5.74055C13.4938 6.0655 11.8207 6.26085 10 6.26085C8.17935 6.26085 6.50626 6.0655 5.14526 5.74055C4.00061 5.4673 2.72253 4.84485 2.09269 4.4084C2.08693 4.39625 2.08109 4.3835 2.07527 4.3704C2.0496 4.31245 2.02861 4.2557 2.01489 4.2055C2.00179 4.1576 2.0002 4.13335 2.00003 4.1306C2.00001 4.13035 2.00003 4.1305 2.00003 4.1306C2.00003 4.11795 2.0052 3.96165 2.34243 3.6843C2.67273 3.4127 3.21111 3.12345 3.96456 2.86138C5.4621 2.34049 7.59595 2 10 2C12.4041 2 14.5379 2.34049 16.0355 2.86138C16.7889 3.12345 17.3273 3.4127 17.6576 3.6843C17.9503 3.92505 17.9929 4.07445 17.999 4.118ZM0.475895 5.6156L8.72715 18.8486C9.3144 19.7904 10.6856 19.7904 11.2729 18.8486L19.5267 5.6115C19.5355 5.5974 19.5439 5.5831 19.552 5.56855L18.6782 5.0824C19.552 5.56855 19.5519 5.5687 19.552 5.56855L19.5526 5.5675L19.5533 5.56625L19.5551 5.56305L19.56 5.5541C19.5638 5.547 19.5689 5.5377 19.5749 5.52635C19.5869 5.50375 19.6031 5.47275 19.622 5.43505C19.6595 5.3604 19.7098 5.2555 19.7609 5.13415C19.8451 4.93395 20 4.53445 20 4.13045C20 3.27865 19.5015 2.61127 18.9279 2.13955C18.3474 1.66214 17.5677 1.2768 16.6925 0.972385C14.9327 0.360285 12.5665 0 10 0C7.43351 0 5.0673 0.360285 3.3075 0.97239C2.43232 1.2768 1.65265 1.66214 1.0721 2.13955C0.49848 2.61127 0 3.27865 0 4.13045C0 4.56375 0.146325 4.9539 0.24661 5.18035C0.30188 5.3051 0.356745 5.4098 0.39844 5.48445C0.419495 5.5222 0.43774 5.55325 0.451755 5.57645C0.458775 5.5881 0.464775 5.59785 0.469585 5.60555L0.473315 5.6115L0.475895 5.6156ZM15.9934 7.498L10 17.11L4.00655 7.498C4.23305 7.56955 4.45895 7.6329 4.68085 7.6859C6.21406 8.05195 8.04505 8.26085 10 8.26085C11.955 8.26085 13.786 8.05195 15.3192 7.6859C15.541 7.6329 15.767 7.56955 15.9934 7.498Z" fill="#137FEC"/>
</svg>
