<svg width="36" height="44" viewBox="0 0 36 44" fill="none" xmlns="http://www.w3.org/2000/svg">
<path d="M9.75 34C7.475 34 5.53125 33.2125 3.91875 31.6375C2.30625 30.0625 1.5 28.1375 1.5 25.8625C1.5 23.9125 2.0875 22.175 3.2625 20.65C4.4375 19.125 5.975 18.15 7.875 17.725C8.5 15.425 9.75 13.5625 11.625 12.1375C13.5 10.7125 15.625 10 18 10C20.925 10 23.4063 11.0187 25.4438 13.0562C27.4813 15.0937 28.5 17.575 28.5 20.5C30.225 20.7 31.6563 21.4437 32.7938 22.7312C33.9313 24.0187 34.5 25.525 34.5 27.25C34.5 29.125 33.8438 30.7187 32.5313 32.0312C31.2188 33.3437 29.625 34 27.75 34H9.75ZM9.75 31H27.75C28.8 31 29.6875 30.6375 30.4125 29.9125C31.1375 29.1875 31.5 28.3 31.5 27.25C31.5 26.2 31.1375 25.3125 30.4125 24.5875C29.6875 23.8625 28.8 23.5 27.75 23.5H25.5V20.5C25.5 18.425 24.7688 16.6562 23.3063 15.1937C21.8438 13.7312 20.075 13 18 13C15.925 13 14.1563 13.7312 12.6938 15.1937C11.2313 16.6562 10.5 18.425 10.5 20.5H9.75C8.3 20.5 7.0625 21.0125 6.0375 22.0375C5.0125 23.0625 4.5 24.3 4.5 25.75C4.5 27.2 5.0125 28.4375 6.0375 29.4625C7.0625 30.4875 8.3 31 9.75 31Z" fill="#1D85E1"/>
</svg>
