<svg width="36" height="44" viewBox="0 0 36 44" fill="none" xmlns="http://www.w3.org/2000/svg">
<path d="M16.5 33.1375V22.8625L7.5 17.65V27.925L16.5 33.1375ZM19.5 33.1375L28.5 27.925V17.65L19.5 22.8625V33.1375ZM16.5 36.5875L6 30.55C5.525 30.275 5.15625 29.9125 4.89375 29.4625C4.63125 29.0125 4.5 28.5125 4.5 27.9625V16.0375C4.5 15.4875 4.63125 14.9875 4.89375 14.5375C5.15625 14.0875 5.525 13.725 6 13.45L16.5 7.4125C16.975 7.1375 17.475 7 18 7C18.525 7 19.025 7.1375 19.5 7.4125L30 13.45C30.475 13.725 30.8438 14.0875 31.1063 14.5375C31.3688 14.9875 31.5 15.4875 31.5 16.0375V27.9625C31.5 28.5125 31.3688 29.0125 31.1063 29.4625C30.8438 29.9125 30.475 30.275 30 30.55L19.5 36.5875C19.025 36.8625 18.525 37 18 37C17.475 37 16.975 36.8625 16.5 36.5875ZM24 16.7875L26.8875 15.1375L18 10L15.075 11.6875L24 16.7875ZM18 20.275L20.925 18.5875L12.0375 13.45L9.1125 15.1375L18 20.275Z" fill="#1D85E1"/>
</svg>
