<svg width="25" height="28" viewBox="0 0 25 28" fill="none" xmlns="http://www.w3.org/2000/svg">
<path d="M4.23229 22.75C3.69756 22.75 3.23981 22.5596 2.85902 22.1788C2.47824 21.798 2.28784 21.3403 2.28784 20.8056V10.1111C2.28784 9.57639 2.47824 9.11863 2.85902 8.73785C3.23981 8.35706 3.69756 8.16667 4.23229 8.16667H8.12118V6.22222C8.12118 5.6875 8.31157 5.22974 8.69236 4.84896C9.07314 4.46817 9.5309 4.27778 10.0656 4.27778H13.9545C14.4892 4.27778 14.947 4.46817 15.3278 4.84896C15.7086 5.22974 15.899 5.6875 15.899 6.22222V8.16667H19.7878C20.3226 8.16667 20.7803 8.35706 21.1611 8.73785C21.5419 9.11863 21.7323 9.57639 21.7323 10.1111V20.8056C21.7323 21.3403 21.5419 21.798 21.1611 22.1788C20.7803 22.5596 20.3226 22.75 19.7878 22.75H4.23229ZM4.23229 20.8056H19.7878V10.1111H4.23229V20.8056ZM10.0656 8.16667H13.9545V6.22222H10.0656V8.16667Z" fill="white"/>
</svg>
