<svg width="48" height="58" viewBox="0 0 48 58" fill="none" xmlns="http://www.w3.org/2000/svg">
<path d="M34 41L31.2 38.2L40.3 29L31.2 19.8L34 17L46 29L34 41ZM14 41L2 29L14 17L16.8 19.8L7.7 29L16.8 38.2L14 41ZM16 31C15.4333 31 14.9583 30.8083 14.575 30.425C14.1917 30.0417 14 29.5667 14 29C14 28.4333 14.1917 27.9583 14.575 27.575C14.9583 27.1917 15.4333 27 16 27C16.5667 27 17.0417 27.1917 17.425 27.575C17.8083 27.9583 18 28.4333 18 29C18 29.5667 17.8083 30.0417 17.425 30.425C17.0417 30.8083 16.5667 31 16 31ZM24 31C23.4333 31 22.9583 30.8083 22.575 30.425C22.1917 30.0417 22 29.5667 22 29C22 28.4333 22.1917 27.9583 22.575 27.575C22.9583 27.1917 23.4333 27 24 27C24.5667 27 25.0417 27.1917 25.425 27.575C25.8083 27.9583 26 28.4333 26 29C26 29.5667 25.8083 30.0417 25.425 30.425C25.0417 30.8083 24.5667 31 24 31ZM32 31C31.4333 31 30.9583 30.8083 30.575 30.425C30.1917 30.0417 30 29.5667 30 29C30 28.4333 30.1917 27.9583 30.575 27.575C30.9583 27.1917 31.4333 27 32 27C32.5667 27 33.0417 27.1917 33.425 27.575C33.8083 27.9583 34 28.4333 34 29C34 29.5667 33.8083 30.0417 33.425 30.425C33.0417 30.8083 32.5667 31 32 31Z" fill="#137FEC"/>
</svg>
