<svg width="48" height="58" viewBox="0 0 48 58" fill="none" xmlns="http://www.w3.org/2000/svg">
<path d="M15 35C14.1667 35 13.4583 34.7083 12.875 34.125C12.2917 33.5417 12 32.8333 12 32V30H15V32H18V23H21V32C21 32.8333 20.7083 33.5417 20.125 34.125C19.5417 34.7083 18.8333 35 18 35H15ZM26 35C25.4333 35 24.9583 34.8083 24.575 34.425C24.1917 34.0417 24 33.5667 24 33V31H27V32H31V30H26C25.4333 30 24.9583 29.8083 24.575 29.425C24.1917 29.0417 24 28.5667 24 28V25C24 24.4333 24.1917 23.9583 24.575 23.575C24.9583 23.1917 25.4333 23 26 23H32C32.5667 23 33.0417 23.1917 33.425 23.575C33.8083 23.9583 34 24.4333 34 25V27H31V26H27V28H32C32.5667 28 33.0417 28.1917 33.425 28.575C33.8083 28.9583 34 29.4333 34 30V33C34 33.5667 33.8083 34.0417 33.425 34.425C33.0417 34.8083 32.5667 35 32 35H26Z" fill="#137FEC"/>
</svg>
