<svg width="48" height="58" viewBox="0 0 48 58" fill="none" xmlns="http://www.w3.org/2000/svg">
<path d="M10.8 44.2C9.3 42.7 8.125 40.9667 7.275 39C6.425 37.0333 6 35 6 32.9C6 30.8 6.4 28.725 7.2 26.675C8 24.625 9.3 22.7 11.1 20.9C12.2667 19.7333 13.7083 18.7333 15.425 17.9C17.1417 17.0667 19.175 16.4083 21.525 15.925C23.875 15.4417 26.5583 15.15 29.575 15.05C32.5917 14.95 35.9667 15.0667 39.7 15.4C39.9667 18.9333 40.05 22.1833 39.95 25.15C39.85 28.1167 39.575 30.7917 39.125 33.175C38.675 35.5583 38.0417 37.6417 37.225 39.425C36.4083 41.2083 35.4 42.7 34.2 43.9C32.4333 45.6667 30.5583 46.9583 28.575 47.775C26.5917 48.5917 24.5667 49 22.5 49C20.3333 49 18.2167 48.575 16.15 47.725C14.0833 46.875 12.3 45.7 10.8 44.2ZM16.4 43.4C17.3667 43.9667 18.3583 44.375 19.375 44.625C20.3917 44.875 21.4333 45 22.5 45C24.0333 45 25.55 44.6917 27.05 44.075C28.55 43.4583 29.9833 42.4667 31.35 41.1C31.95 40.5 32.5583 39.6583 33.175 38.575C33.7917 37.4917 34.325 36.075 34.775 34.325C35.225 32.575 35.5667 30.4583 35.8 27.975C36.0333 25.4917 36.0667 22.5333 35.9 19.1C34.2667 19.0333 32.425 19.0083 30.375 19.025C28.325 19.0417 26.2833 19.2 24.25 19.5C22.2167 19.8 20.2833 20.2833 18.45 20.95C16.6167 21.6167 15.1167 22.5333 13.95 23.7C12.45 25.2 11.4167 26.6833 10.85 28.15C10.2833 29.6167 10 31.0333 10 32.4C10 34.3667 10.375 36.0917 11.125 37.575C11.875 39.0583 12.5333 40.1 13.1 40.7C14.5 38.0333 16.35 35.475 18.65 33.025C20.95 30.575 23.6333 28.5667 26.7 27C24.3 29.1 22.2083 31.475 20.425 34.125C18.6417 36.775 17.3 39.8667 16.4 43.4Z" fill="#1D85E1"/>
</svg>
