<svg width="30" height="36" viewBox="0 0 30 36" fill="none" xmlns="http://www.w3.org/2000/svg">
<path d="M10 28C9.3125 28 8.72396 27.7552 8.23438 27.2656C7.74479 26.776 7.5 26.1875 7.5 25.5V21.75H11.25V18.9375C10.5208 18.8958 9.82812 18.7344 9.17188 18.4531C8.51562 18.1719 7.91667 17.75 7.375 17.1875V15.8125H5.9375L1.875 11.75C2.625 10.7917 3.55208 10.1146 4.65625 9.71875C5.76042 9.32292 6.875 9.125 8 9.125C8.5625 9.125 9.10938 9.16667 9.64062 9.25C10.1719 9.33333 10.7083 9.48958 11.25 9.71875V8H26.25V24.25C26.25 25.2917 25.8854 26.1771 25.1562 26.9062C24.4271 27.6354 23.5417 28 22.5 28H10ZM13.75 21.75H21.25V24.25C21.25 24.6042 21.3698 24.901 21.6094 25.1406C21.849 25.3802 22.1458 25.5 22.5 25.5C22.8542 25.5 23.151 25.3802 23.3906 25.1406C23.6302 24.901 23.75 24.6042 23.75 24.25V10.5H13.75V11.25L21.25 18.75V20.5H19.5L15.9375 16.9375L15.6875 17.1875C15.3958 17.4792 15.0885 17.7396 14.7656 17.9688C14.4427 18.1979 14.1042 18.375 13.75 18.5V21.75ZM7 13.3125H9.875V16C10.125 16.1667 10.3854 16.2812 10.6562 16.3438C10.9271 16.4062 11.2083 16.4375 11.5 16.4375C11.9792 16.4375 12.4115 16.3646 12.7969 16.2188C13.1823 16.0729 13.5625 15.8125 13.9375 15.4375L14.1875 15.1875L12.4375 13.4375C11.8333 12.8333 11.1562 12.3802 10.4062 12.0781C9.65625 11.776 8.85417 11.625 8 11.625C7.58333 11.625 7.1875 11.6562 6.8125 11.7188C6.4375 11.7812 6.0625 11.875 5.6875 12L7 13.3125ZM18.75 24.25H10V25.5H18.9375C18.875 25.3125 18.8281 25.1146 18.7969 24.9062C18.7656 24.6979 18.75 24.4792 18.75 24.25ZM10 25.5C10 25.3125 10 25.1146 10 24.9062C10 24.6979 10 24.4792 10 24.25C10 24.4583 10 24.6667 10 24.875C10 25.0833 10 25.2917 10 25.5Z" fill="#137FEC"/>
</svg>
