<svg width="48" height="58" viewBox="0 0 48 58" fill="none" xmlns="http://www.w3.org/2000/svg">
<path d="M39.5501 50.2L28.3501 39H14V24.65L2.80005 13.45L5.60005 10.6L42.4001 47.4L39.5501 50.2ZM18.0001 35H24.3501L18.0001 28.65V35ZM34.0001 33.35L30.0001 29.35V23H23.6501L19.6501 19H34.0001V33.35ZM10 43V47C8.90005 47 7.95838 46.6083 7.17505 45.825C6.39172 45.0417 6.00005 44.1 6.00005 43H10ZM6.00005 39V35H10V39H6.00005ZM6.00005 31V27H10V31H6.00005ZM6.00005 23V19H10V23H6.00005ZM14 47V43H18.0001V47H14ZM14 15V11H18.0001V15H14ZM22.0001 47V43H26.0001V47H22.0001ZM22.0001 15V11H26.0001V15H22.0001ZM30.0001 47V43H34.0001V47H30.0001ZM30.0001 15V11H34.0001V15H30.0001ZM38.0001 39V35H42.0001V39H38.0001ZM38.0001 31V27H42.0001V31H38.0001ZM38.0001 23V19H42.0001V23H38.0001ZM38.0001 15V11C39.1001 11 40.0417 11.3917 40.8251 12.175C41.6084 12.9583 42.0001 13.9 42.0001 15H38.0001Z" fill="#1D85E1"/>
</svg>
