<svg width="36" height="44" viewBox="0 0 36 44" fill="none" xmlns="http://www.w3.org/2000/svg">
<path d="M8.25 30.25C5.95 30.25 4 29.45 2.4 27.85C0.8 26.25 0 24.3 0 22C0 19.7 0.8 17.75 2.4 16.15C4 14.55 5.95 13.75 8.25 13.75C9.175 13.75 10.0625 13.9125 10.9125 14.2375C11.7625 14.5625 12.525 15.025 13.2 15.625L15.75 17.95L13.5 19.975L11.175 17.875C10.775 17.525 10.325 17.25 9.825 17.05C9.325 16.85 8.8 16.75 8.25 16.75C6.8 16.75 5.5625 17.2625 4.5375 18.2875C3.5125 19.3125 3 20.55 3 22C3 23.45 3.5125 24.6875 4.5375 25.7125C5.5625 26.7375 6.8 27.25 8.25 27.25C8.8 27.25 9.325 27.15 9.825 26.95C10.325 26.75 10.775 26.475 11.175 26.125L22.8 15.625C23.475 15.025 24.2375 14.5625 25.0875 14.2375C25.9375 13.9125 26.825 13.75 27.75 13.75C30.05 13.75 32 14.55 33.6 16.15C35.2 17.75 36 19.7 36 22C36 24.3 35.2 26.25 33.6 27.85C32 29.45 30.05 30.25 27.75 30.25C26.825 30.25 25.9375 30.0875 25.0875 29.7625C24.2375 29.4375 23.475 28.975 22.8 28.375L20.25 26.05L22.5 24.025L24.825 26.125C25.225 26.475 25.675 26.75 26.175 26.95C26.675 27.15 27.2 27.25 27.75 27.25C29.2 27.25 30.4375 26.7375 31.4625 25.7125C32.4875 24.6875 33 23.45 33 22C33 20.55 32.4875 19.3125 31.4625 18.2875C30.4375 17.2625 29.2 16.75 27.75 16.75C27.2 16.75 26.675 16.85 26.175 17.05C25.675 17.25 25.225 17.525 24.825 17.875L13.2 28.375C12.525 28.975 11.7625 29.4375 10.9125 29.7625C10.0625 30.0875 9.175 30.25 8.25 30.25Z" fill="#1D85E1"/>
</svg>
