<svg width="36" height="44" viewBox="0 0 36 44" fill="none" xmlns="http://www.w3.org/2000/svg">
<path d="M3 34.525V31.6C3.725 31.6 4.34375 31.4875 4.85625 31.2625C5.36875 31.0375 5.8875 30.7938 6.4125 30.5313C6.9375 30.2688 7.51875 30.0313 8.15625 29.8188C8.79375 29.6063 9.58125 29.5 10.5188 29.5C11.4563 29.5 12.2313 29.6063 12.8438 29.8188C13.4563 30.0313 14.025 30.2688 14.55 30.5313C15.075 30.7938 15.6 31.0375 16.125 31.2625C16.65 31.4875 17.275 31.6 18 31.6C18.725 31.6 19.35 31.4875 19.875 31.2625C20.4 31.0375 20.925 30.7938 21.45 30.5313C21.975 30.2688 22.55 30.0313 23.175 29.8188C23.8 29.6063 24.5813 29.5 25.5188 29.5C26.4563 29.5 27.2375 29.6063 27.8625 29.8188C28.4875 30.0313 29.0625 30.2688 29.5875 30.5313C30.1125 30.7938 30.6375 31.0375 31.1625 31.2625C31.6875 31.4875 32.3 31.6 33 31.6V34.525C32.05 34.525 31.2563 34.4125 30.6188 34.1875C29.9813 33.9625 29.4 33.7188 28.875 33.4563C28.35 33.1938 27.8375 32.9563 27.3375 32.7438C26.8375 32.5313 26.225 32.425 25.5 32.425C24.8 32.425 24.1938 32.5313 23.6813 32.7438C23.1688 32.9563 22.6563 33.1938 22.1438 33.4563C21.6313 33.7188 21.0563 33.9625 20.4188 34.1875C19.7813 34.4125 18.975 34.525 18 34.525C17.025 34.525 16.2188 34.4125 15.5813 34.1875C14.9438 33.9625 14.3688 33.7188 13.8563 33.4563C13.3438 33.1938 12.8375 32.9563 12.3375 32.7438C11.8375 32.5313 11.2313 32.425 10.5188 32.425C9.80625 32.425 9.19375 32.5313 8.68125 32.7438C8.16875 32.9563 7.65 33.1938 7.125 33.4563C6.6 33.7188 6.01875 33.9625 5.38125 34.1875C4.74375 34.4125 3.95 34.525 3 34.525ZM3 27.85V24.925C3.725 24.925 4.34375 24.8125 4.85625 24.5875C5.36875 24.3625 5.8875 24.1188 6.4125 23.8563C6.9375 23.5938 7.51875 23.3563 8.15625 23.1438C8.79375 22.9313 9.58125 22.825 10.5188 22.825C11.4563 22.825 12.2313 22.9313 12.8438 23.1438C13.4563 23.3563 14.025 23.5938 14.55 23.8563C15.075 24.1188 15.6 24.3625 16.125 24.5875C16.65 24.8125 17.275 24.925 18 24.925C18.725 24.925 19.35 24.8125 19.875 24.5875C20.4 24.3625 20.925 24.1188 21.45 23.8563C21.975 23.5938 22.55 23.3563 23.175 23.1438C23.8 22.9313 24.575 22.825 25.5 22.825C26.45 22.825 27.2375 22.9313 27.8625 23.1438C28.4875 23.3563 29.0625 23.5938 29.5875 23.8563C30.1125 24.1188 30.6375 24.3625 31.1625 24.5875C31.6875 24.8125 32.3 24.925 33 24.925V27.85C32.05 27.85 31.2563 27.7375 30.6188 27.5125C29.9813 27.2875 29.4 27.0438 28.875 26.7813C28.35 26.5188 27.8375 26.2813 27.3375 26.0688C26.8375 25.8563 26.225 25.75 25.5 25.75C24.775 25.75 24.1563 25.8563 23.6438 26.0688C23.1313 26.2813 22.6188 26.5188 22.1063 26.7813C21.5938 27.0438 21.025 27.2875 20.4 27.5125C19.775 27.7375 18.975 27.85 18 27.85C17.025 27.85 16.2188 27.7375 15.5813 27.5125C14.9438 27.2875 14.3688 27.0438 13.8563 26.7813C13.3438 26.5188 12.8375 26.2813 12.3375 26.0688C11.8375 25.8563 11.2313 25.75 10.5188 25.75C9.80625 25.75 9.19375 25.8563 8.68125 26.0688C8.16875 26.2813 7.65 26.5188 7.125 26.7813C6.6 27.0438 6.01875 27.2875 5.38125 27.5125C4.74375 27.7375 3.95 27.85 3 27.85ZM3 21.175V18.25C3.725 18.25 4.34375 18.1375 4.85625 17.9125C5.36875 17.6875 5.8875 17.4438 6.4125 17.1813C6.9375 16.9188 7.51875 16.6813 8.15625 16.4688C8.79375 16.2563 9.58125 16.15 10.5188 16.15C11.4563 16.15 12.2313 16.2563 12.8438 16.4688C13.4563 16.6813 14.025 16.9188 14.55 17.1813C15.075 17.4438 15.6 17.6875 16.125 17.9125C16.65 18.1375 17.275 18.25 18 18.25C18.725 18.25 19.35 18.1375 19.875 17.9125C20.4 17.6875 20.925 17.4438 21.45 17.1813C21.975 16.9188 22.55 16.6813 23.175 16.4688C23.8 16.2563 24.575 16.15 25.5 16.15C26.45 16.15 27.2375 16.2563 27.8625 16.4688C28.4875 16.6813 29.0625 16.9188 29.5875 17.1813C30.1125 17.4438 30.6375 17.6875 31.1625 17.9125C31.6875 18.1375 32.3 18.25 33 18.25V21.175C32.05 21.175 31.2563 21.0625 30.6188 20.8375C29.9813 20.6125 29.4 20.3688 28.875 20.1063C28.35 19.8438 27.8375 19.6063 27.3375 19.3938C26.8375 19.1813 26.225 19.075 25.5 19.075C24.8 19.075 24.1938 19.1813 23.6813 19.3938C23.1688 19.6063 22.6563 19.8438 22.1438 20.1063C21.6313 20.3688 21.0563 20.6125 20.4188 20.8375C19.7813 21.0625 18.975 21.175 18 21.175C17.025 21.175 16.2188 21.0625 15.5813 20.8375C14.9438 20.6125 14.3688 20.3688 13.8563 20.1063C13.3438 19.8438 12.8375 19.6063 12.3375 19.3938C11.8375 19.1813 11.2313 19.075 10.5188 19.075C9.80625 19.075 9.19375 19.1813 8.68125 19.3938C8.16875 19.6063 7.65 19.8438 7.125 20.1063C6.6 20.3688 6.01875 20.6125 5.38125 20.8375C4.74375 21.0625 3.95 21.175 3 21.175ZM3 14.5V11.575C3.725 11.575 4.34375 11.4625 4.85625 11.2375C5.36875 11.0125 5.8875 10.7688 6.4125 10.5063C6.9375 10.2438 7.51875 10.0063 8.15625 9.79377C8.79375 9.58127 9.58125 9.47502 10.5188 9.47502C11.4563 9.47502 12.2313 9.58127 12.8438 9.79377C13.4563 10.0063 14.025 10.2438 14.55 10.5063C15.075 10.7688 15.6 11.0125 16.125 11.2375C16.65 11.4625 17.275 11.575 18 11.575C18.725 11.575 19.35 11.4625 19.875 11.2375C20.4 11.0125 20.925 10.7688 21.45 10.5063C21.975 10.2438 22.55 10.0063 23.175 9.79377C23.8 9.58127 24.575 9.47502 25.5 9.47502C26.45 9.47502 27.2375 9.58127 27.8625 9.79377C28.4875 10.0063 29.0625 10.2438 29.5875 10.5063C30.1125 10.7688 30.6375 11.0125 31.1625 11.2375C31.6875 11.4625 32.3 11.575 33 11.575V14.5C32.05 14.5 31.2563 14.3875 30.6188 14.1625C29.9813 13.9375 29.4 13.6938 28.875 13.4313C28.35 13.1688 27.8375 12.9313 27.3375 12.7188C26.8375 12.5063 26.225 12.4 25.5 12.4C24.8 12.4 24.1938 12.5063 23.6813 12.7188C23.1688 12.9313 22.6563 13.1688 22.1438 13.4313C21.6313 13.6938 21.0563 13.9375 20.4188 14.1625C19.7813 14.3875 18.975 14.5 18 14.5C17.025 14.5 16.2188 14.3875 15.5813 14.1625C14.9438 13.9375 14.3688 13.6938 13.8563 13.4313C13.3438 13.1688 12.8375 12.9313 12.3375 12.7188C11.8375 12.5063 11.2313 12.4 10.5188 12.4C9.80625 12.4 9.19375 12.5063 8.68125 12.7188C8.16875 12.9313 7.65 13.1688 7.125 13.4313C6.6 13.6938 6.01875 13.9375 5.38125 14.1625C4.74375 14.3875 3.95 14.5 3 14.5Z" fill="#1D85E1"/>
</svg>
